<mxfile host="app.diagrams.net" modified="2021-04-27T14:09:19.468Z" agent="5.0 (Windows NT 10.0; Win64; x64) AppleWebKit/537.36 (KHTML, like Gecko) Chrome/89.0.4389.128 Safari/537.36" etag="6BNb0YtutwTyAP2B87tQ" version="14.6.6" type="github">
  <diagram id="5C_f6xuZ6fZgaKtIw8eq" name="Page-1">
    <mxGraphModel dx="1422" dy="762" grid="1" gridSize="10" guides="1" tooltips="1" connect="1" arrows="1" fold="1" page="1" pageScale="1" pageWidth="850" pageHeight="1100" math="0" shadow="0">
      <root>
        <mxCell id="0" />
        <mxCell id="1" parent="0" />
        <mxCell id="liflb04IZca5yCDYQWxZ-3" value="" style="edgeStyle=orthogonalEdgeStyle;rounded=0;orthogonalLoop=1;jettySize=auto;html=1;" edge="1" parent="1" source="liflb04IZca5yCDYQWxZ-1" target="liflb04IZca5yCDYQWxZ-2">
          <mxGeometry relative="1" as="geometry" />
        </mxCell>
        <mxCell id="liflb04IZca5yCDYQWxZ-1" value="Seedlist" style="shape=note;whiteSpace=wrap;html=1;backgroundOutline=1;darkOpacity=0.05;" vertex="1" parent="1">
          <mxGeometry x="20" y="630" width="80" height="100" as="geometry" />
        </mxCell>
        <mxCell id="liflb04IZca5yCDYQWxZ-10" value="" style="edgeStyle=orthogonalEdgeStyle;rounded=0;orthogonalLoop=1;jettySize=auto;html=1;entryX=0;entryY=0.5;entryDx=0;entryDy=0;" edge="1" parent="1" source="liflb04IZca5yCDYQWxZ-2" target="liflb04IZca5yCDYQWxZ-4">
          <mxGeometry relative="1" as="geometry" />
        </mxCell>
        <mxCell id="liflb04IZca5yCDYQWxZ-2" value="URL work queue" style="shape=cylinder3;whiteSpace=wrap;html=1;boundedLbl=1;backgroundOutline=1;size=15;rotation=-90;" vertex="1" parent="1">
          <mxGeometry x="170" y="640" width="60" height="80" as="geometry" />
        </mxCell>
        <mxCell id="liflb04IZca5yCDYQWxZ-4" value="" style="rounded=1;whiteSpace=wrap;html=1;" vertex="1" parent="1">
          <mxGeometry x="300" y="505" width="210" height="350" as="geometry" />
        </mxCell>
        <mxCell id="liflb04IZca5yCDYQWxZ-5" value="Worker" style="rounded=1;whiteSpace=wrap;html=1;" vertex="1" parent="1">
          <mxGeometry x="345" y="550" width="120" height="60" as="geometry" />
        </mxCell>
        <mxCell id="liflb04IZca5yCDYQWxZ-6" value="Worker" style="rounded=1;whiteSpace=wrap;html=1;" vertex="1" parent="1">
          <mxGeometry x="345" y="640" width="120" height="60" as="geometry" />
        </mxCell>
        <mxCell id="liflb04IZca5yCDYQWxZ-7" value="Worker" style="rounded=1;whiteSpace=wrap;html=1;" vertex="1" parent="1">
          <mxGeometry x="345" y="780" width="120" height="60" as="geometry" />
        </mxCell>
        <mxCell id="liflb04IZca5yCDYQWxZ-8" value="..." style="text;html=1;strokeColor=none;fillColor=none;align=center;verticalAlign=middle;whiteSpace=wrap;rounded=0;rotation=90;" vertex="1" parent="1">
          <mxGeometry x="390" y="730" width="40" height="20" as="geometry" />
        </mxCell>
        <mxCell id="liflb04IZca5yCDYQWxZ-9" value="Workers" style="text;html=1;strokeColor=none;fillColor=none;align=center;verticalAlign=middle;whiteSpace=wrap;rounded=0;" vertex="1" parent="1">
          <mxGeometry x="330" y="480" width="40" height="20" as="geometry" />
        </mxCell>
      </root>
    </mxGraphModel>
  </diagram>
</mxfile>
